<mxfile host="app.diagrams.net" modified="2022-10-29T10:05:19.914Z" agent="5.0 (Windows NT 10.0; Win64; x64) AppleWebKit/537.36 (KHTML, like Gecko) Chrome/107.0.0.0 Safari/537.36" etag="dxeDzuMf_l0KPnok-rbY" version="20.5.1" type="github">
  <diagram id="RVXczY8z7VoqJN03IOw2" name="Page-1">
    <mxGraphModel dx="1422" dy="794" grid="1" gridSize="10" guides="1" tooltips="1" connect="1" arrows="1" fold="1" page="1" pageScale="1" pageWidth="827" pageHeight="1169" math="0" shadow="0">
      <root>
        <mxCell id="0" />
        <mxCell id="1" parent="0" />
        <mxCell id="JE6jX2tiH5iUeQgJyCBl-1" value="" style="edgeStyle=orthogonalEdgeStyle;rounded=0;orthogonalLoop=1;jettySize=auto;html=1;fillColor=#dae8fc;strokeColor=#6c8ebf;" edge="1" parent="1" source="JE6jX2tiH5iUeQgJyCBl-2" target="JE6jX2tiH5iUeQgJyCBl-5">
          <mxGeometry relative="1" as="geometry" />
        </mxCell>
        <mxCell id="JE6jX2tiH5iUeQgJyCBl-2" value="云枢 模型&lt;br&gt;氚云 表单&lt;br&gt;有格 表格" style="rounded=0;whiteSpace=wrap;html=1;fillColor=#dae8fc;strokeColor=#6c8ebf;" vertex="1" parent="1">
          <mxGeometry x="160" y="200" width="120" height="60" as="geometry" />
        </mxCell>
        <mxCell id="JE6jX2tiH5iUeQgJyCBl-4" value="" style="edgeStyle=orthogonalEdgeStyle;rounded=0;orthogonalLoop=1;jettySize=auto;html=1;fillColor=#dae8fc;strokeColor=#6c8ebf;" edge="1" parent="1" source="JE6jX2tiH5iUeQgJyCBl-5" target="JE6jX2tiH5iUeQgJyCBl-12">
          <mxGeometry relative="1" as="geometry" />
        </mxCell>
        <mxCell id="JE6jX2tiH5iUeQgJyCBl-5" value="新建同步&lt;br&gt;&lt;br&gt;选择连接器&lt;br&gt;选择动作&lt;br&gt;配置参数映射&lt;br&gt;配置同步周期" style="rounded=0;whiteSpace=wrap;html=1;fillColor=#dae8fc;strokeColor=#6c8ebf;" vertex="1" parent="1">
          <mxGeometry x="360" y="180" width="120" height="100" as="geometry" />
        </mxCell>
        <mxCell id="JE6jX2tiH5iUeQgJyCBl-6" value="" style="edgeStyle=orthogonalEdgeStyle;rounded=0;orthogonalLoop=1;jettySize=auto;html=1;" edge="1" parent="1" source="JE6jX2tiH5iUeQgJyCBl-7" target="JE6jX2tiH5iUeQgJyCBl-2">
          <mxGeometry relative="1" as="geometry" />
        </mxCell>
        <mxCell id="JE6jX2tiH5iUeQgJyCBl-7" value="创建连接器&lt;br&gt;从三方系统获取数据" style="rounded=0;whiteSpace=wrap;html=1;fillColor=#d5e8d4;strokeColor=#82b366;" vertex="1" parent="1">
          <mxGeometry x="160" y="80" width="120" height="60" as="geometry" />
        </mxCell>
        <mxCell id="JE6jX2tiH5iUeQgJyCBl-10" value="" style="edgeStyle=orthogonalEdgeStyle;rounded=0;orthogonalLoop=1;jettySize=auto;html=1;dashed=1;" edge="1" parent="1" source="JE6jX2tiH5iUeQgJyCBl-12" target="JE6jX2tiH5iUeQgJyCBl-13">
          <mxGeometry relative="1" as="geometry" />
        </mxCell>
        <mxCell id="JE6jX2tiH5iUeQgJyCBl-11" value="" style="edgeStyle=orthogonalEdgeStyle;rounded=0;orthogonalLoop=1;jettySize=auto;html=1;" edge="1" parent="1" source="JE6jX2tiH5iUeQgJyCBl-12" target="JE6jX2tiH5iUeQgJyCBl-14">
          <mxGeometry relative="1" as="geometry" />
        </mxCell>
        <mxCell id="JE6jX2tiH5iUeQgJyCBl-12" value="定时任务" style="rounded=0;whiteSpace=wrap;html=1;fillColor=#dae8fc;strokeColor=#6c8ebf;" vertex="1" parent="1">
          <mxGeometry x="360" y="340" width="120" height="60" as="geometry" />
        </mxCell>
        <mxCell id="JE6jX2tiH5iUeQgJyCBl-13" value="同步数据接口&lt;br&gt;&lt;br&gt;执行动作&lt;br&gt;获取数据&lt;br&gt;按照映射转换&lt;br&gt;返回数据" style="rounded=0;whiteSpace=wrap;html=1;fillColor=#d5e8d4;strokeColor=#82b366;" vertex="1" parent="1">
          <mxGeometry x="360" y="480" width="120" height="100" as="geometry" />
        </mxCell>
        <mxCell id="JE6jX2tiH5iUeQgJyCBl-14" value="Engine&lt;br&gt;&lt;br&gt;保存同步的数据" style="rounded=0;whiteSpace=wrap;html=1;fillColor=#dae8fc;strokeColor=#6c8ebf;" vertex="1" parent="1">
          <mxGeometry x="160" y="340" width="120" height="60" as="geometry" />
        </mxCell>
      </root>
    </mxGraphModel>
  </diagram>
</mxfile>
